<?xml version="1.0" encoding="utf-8"?>
<!-- Generator: Adobe Illustrator 24.3.0, SVG Export Plug-In . SVG Version: 6.00 Build 0)  -->
<svg version="1.1" id="Layer_1" xmlns="http://www.w3.org/2000/svg" xmlns:xlink="http://www.w3.org/1999/xlink" x="0px" y="0px"
	 viewBox="0 0 337 476.7" style="enable-background:new 0 0 337 476.7;" xml:space="preserve">
<style type="text/css">
	.st0{fill:#FFFFFF;}
</style>
<path d="M337,168.5c0,93.1-168.5,308.2-168.5,308.2S0,261.5,0,168.5S75.4,0,168.5,0S337,75.4,337,168.5z"/>
<g>
	<path class="st0" d="M262.8,128.5h-52.2c-2.8-15.7-12.6-26.4-33.8-26.4c-17.8,0-29.8,7.4-29.8,20.9c0,11.4,8.3,16.3,24,19.7
		l29.2,6.8c38.1,8.3,63,23.7,63,59.6c0,41.8-34.4,67.9-86.7,67.9c-47,0-89.4-22.1-94.3-73.7h51.9c3.4,18.4,19.4,29.5,43.9,29.5
		c19.4,0,29.5-7.1,29.5-18.4c0-7.1-4.3-14.4-22.1-17.8l-34.4-7.7c-41.2-8.9-60.5-28.3-60.5-61.5c0-41.8,33.8-68.2,83-68.2
		C207.2,59,257.6,72.3,262.8,128.5z"/>
</g>
</svg>
